<svg xmlns="http://www.w3.org/2000/svg" viewBox="0 0 490.92 496"><defs><style>.cls-1{fill:#74aad3;}.cls-2{fill:#fff;}.cls-3{fill:#d39574;}.cls-4{fill:#7e8183;}</style></defs><title>Asset 1</title><g id="Layer_2" data-name="Layer 2"><g id="Layer_1-2" data-name="Layer 1"><circle class="cls-1" cx="245.31" cy="245.31" r="245.31"/><path class="cls-2" d="M176.89,495.91c0-29.22.53-70.9.53-100.12l-68.48.18a9.13,9.13,0,0,1-9.11-8.32q-3.51-39.57-7-79.15H58.33a3.66,3.66,0,0,1-3.41-5l38.85-98c-.92-8.88-6.64-75,43.74-125.4,42.57-42.63,95.71-44.56,106.93-44.72,9.49-.13,61.19.83,102.07,39.86,25.12,24,34.85,51.57,38.09,61.1a158.44,158.44,0,0,1,8.3,45.23,183.5,183.5,0,0,1-.56,26c-1.92,20.63-6.95,36.68-16.66,62.05-7.44,19.41-17.32,43.51-30.14,71,7.78,47.31,17.08,108,24.85,155.33C306.58,496.22,240.71,495.59,176.89,495.91Z"/><rect class="cls-3" x="382.5" y="67.58" width="33.05" height="33.05"/><rect class="cls-3" x="320.81" y="260.41" width="33.05" height="33.05"/><rect class="cls-3" x="393.5" y="290.92" width="33.05" height="33.05"/><rect class="cls-1" x="258.38" y="67.58" width="33.05" height="33.05"/><rect class="cls-1" x="237.44" y="130.16" width="33.05" height="33.05"/><rect class="cls-1" x="237.44" y="163.22" width="33.05" height="33.05"/><rect class="cls-1" x="270.5" y="163.22" width="33.05" height="33.05"/><rect class="cls-1" x="178.28" y="132.16" width="33.05" height="33.05"/><rect class="cls-1" x="125.74" y="194.73" width="33.05" height="33.05"/><rect class="cls-1" x="205.39" y="195.73" width="33.05" height="33.05"/><rect class="cls-1" x="185.87" y="227.78" width="33.05" height="33.05"/><rect class="cls-1" x="133.89" y="259.39" width="33.05" height="33.05"/><rect class="cls-1" x="217.92" y="290.08" width="33.05" height="33.05"/><rect class="cls-1" x="230.18" y="323.13" width="33.05" height="33.05"/><rect class="cls-1" x="297.43" y="227.36" width="33.05" height="33.05"/><rect class="cls-1" x="274.57" y="290.5" width="33.05" height="33.05"/><rect class="cls-4" x="325.93" y="130.16" width="33.05" height="33.05"/><rect class="cls-4" x="370.14" y="163.22" width="33.05" height="33.05"/><rect class="cls-4" x="337.34" y="195.73" width="33.05" height="33.05"/><rect class="cls-4" x="283.14" y="196.27" width="31.27" height="31.27"/><rect class="cls-4" x="382.5" y="227.36" width="33.05" height="33.05"/><rect class="cls-4" x="426.55" y="163.22" width="33.05" height="33.05"/><rect class="cls-4" x="457.87" y="130.16" width="33.05" height="33.05"/><rect class="cls-4" x="445.87" y="290.92" width="33.05" height="33.05"/><rect class="cls-4" x="373.34" y="323.9" width="33.05" height="33.05"/></g></g></svg>