<?xml version="1.0" standalone="no"?>
<!DOCTYPE svg PUBLIC "-//W3C//DTD SVG 20010904//EN"
 "http://www.w3.org/TR/2001/REC-SVG-20010904/DTD/svg10.dtd">
<svg version="1.0" xmlns="http://www.w3.org/2000/svg"
 width="640.000000pt" height="640.000000pt" viewBox="0 0 640.000000 640.000000"
 preserveAspectRatio="xMidYMid meet">
<metadata>
Created by potrace 1.15, written by Peter Selinger 2001-2017
</metadata>
<g transform="translate(0.000000,640.000000) scale(0.100000,-0.100000)"
fill="#000000" stroke="none">
<path d="M190 6065 l0 -145 155 0 155 0 0 -45 0 -45 120 0 120 0 0 -45 0 -45
-280 0 -280 0 0 -85 0 -85 290 0 290 0 0 80 0 80 60 0 60 0 0 70 0 70 -65 0
-65 0 0 100 0 100 -115 0 -115 0 0 70 0 70 -165 0 -165 0 0 -145z"/>
<path d="M1810 6150 l0 -60 -195 0 -195 0 0 -100 0 -100 -80 0 -80 0 0 -180 0
-180 65 0 65 0 0 -830 0 -830 515 0 515 0 0 160 0 160 110 0 110 0 0 403 c0
222 3 486 7 585 l6 182 -116 0 -117 0 0 85 0 85 95 0 95 0 0 225 0 225 -45 0
-45 0 0 115 0 115 -355 0 -355 0 0 -60z m510 -640 c0 -19 -7 -20 -255 -20
-248 0 -255 1 -255 20 0 19 7 20 255 20 248 0 255 -1 255 -20z m200 -730 l0
-440 -50 0 -50 0 0 440 0 440 50 0 50 0 0 -440z m-870 40 l0 -340 -25 0 -25 0
0 333 c0 184 3 337 7 340 3 4 15 7 25 7 17 0 18 -17 18 -340z m280 0 l0 -340
-25 0 -25 0 0 333 c0 184 3 337 7 340 3 4 15 7 25 7 17 0 18 -17 18 -340z
m280 0 l0 -340 -27 0 -26 0 6 233 c4 127 7 280 7 340 0 100 1 107 20 107 20 0
20 -7 20 -340z"/>
<path d="M3500 6065 l0 -145 155 0 155 0 0 -50 0 -50 120 0 120 0 0 -35 c0
-33 -2 -35 -35 -35 l-35 0 0 -115 0 -115 45 0 45 0 0 105 c0 87 3 105 15 105
12 0 15 -19 15 -110 l0 -110 45 0 45 0 0 180 0 180 -65 0 -65 0 0 100 0 100
-115 0 -115 0 0 70 0 70 -165 0 -165 0 0 -145z"/>
<path d="M5140 6124 l0 -85 -105 -151 -105 -151 0 -943 0 -944 315 0 315 0 0
206 0 205 23 -3 c22 -3 22 -4 25 -197 2 -149 -1 -196 -10 -203 -7 -4 71 -8
175 -8 l187 0 0 945 0 945 -95 136 -95 137 0 98 0 99 -315 0 -315 0 0 -86z
m622 -125 c4 -22 -3 -41 -22 -67 -14 -20 -52 -75 -83 -121 l-57 -84 0 -278 0
-279 -25 0 -25 0 0 265 0 265 -285 0 c-278 0 -285 0 -285 20 0 20 7 20 278 20
323 0 276 -17 386 143 l67 97 -275 0 -276 0 0 25 0 25 299 0 299 0 4 -31z"/>
<path d="M3150 5635 l0 -115 400 0 400 0 0 115 0 115 -400 0 -400 0 0 -115z"/>
<path d="M180 4695 l0 -825 290 0 290 0 0 825 0 825 -290 0 -290 0 0 -825z"/>
<path d="M3148 4673 c-2 -445 -3 -809 -3 -809 0 -1 231 -4 513 -8 l512 -7 0
53 c0 29 3 97 7 151 l6 97 109 0 108 0 0 545 0 544 -35 7 c-19 3 -56 3 -81 -1
-25 -3 -58 -3 -74 0 l-30 7 0 114 0 114 -514 0 -515 0 -3 -807z m1132 140 c0
-164 -3 -349 -7 -410 l-6 -113 -44 0 -43 0 0 410 0 410 50 0 50 0 0 -297z
m-870 -73 l0 -310 -25 0 -25 0 0 310 0 310 25 0 25 0 0 -310z m280 0 l0 -310
-25 0 -25 0 0 310 0 310 25 0 25 0 0 -310z m280 0 l0 -310 -25 0 -25 0 0 310
0 310 25 0 25 0 0 -310z"/>
</g>
</svg>
